# xmcd
#
# Track frame offsets:
#	150
#	19356
#	43842
#	66063
#	88529
#	110432
#	128827
#	144756
#
# Disc length: 2145 seconds
#
# Revision: 1
# Processed by: cddbd v1.5.2PL0 Copyright (c) Steve Scherf et al.
# Submitted via: EZCDAudioConverter 8.0.2.1
#
DISCID=67085f08
DTITLE=Khắc Việt, Hoàng Duy, Hải Phong, Hồng Thuận - Nguyễn Album
DYEAR=2011
DGENRE=Contemporary Pop
TTITLE0=Khắc Việt - Anh khác hay em khác
TTITLE1=Khắc Việt - Có lẽ ta đã hạnh phúc
TTITLE2=Nguyễn Hồng Thuận - Anh tiếc
TTITLE3=Nguyễn Hồng Thuận - Nhật ký ngày không em
TTITLE4=Nguyễn Hoàng Duy - Nếu thời gian trở lại
TTITLE5=Nguyễn Hoàng Duy - Không như giấc mơ
TTITLE6=Nguyễn Hải Phong - Tồn tại
TTITLE7=Nguyễn Hải Phong - Nơi ấy
EXTD=
EXTT0=
EXTT1=
EXTT2=
EXTT3=
EXTT4=
EXTT5=
EXTT6=
EXTT7=
PLAYORDER=
